HIERARCHY
ROOT Hips
{
	OFFSET -3.958830 18.904000 13.208200
	CHANNELS 6 Xposition Yposition Zposition Zrotation Yrotation Xrotation 
	JOINT LHipJoint
	{
		OFFSET 0.000000 0.000000 0.000000
		CHANNELS 3 Zrotation Yrotation Xrotation
		JOINT LeftUpLeg
		{
			OFFSET 1.800000 -1.400000 0.085000
			CHANNELS 3 Zrotation Yrotation Xrotation
			JOINT LeftLeg
			{
				OFFSET 2.215000 -6.000000 0.000000
				CHANNELS 3 Zrotation Yrotation Xrotation
				JOINT LeftFoot
				{
					OFFSET 2.500000 -6.900000 0.000000
					CHANNELS 3 Zrotation Yrotation Xrotation
					JOINT LeftToeBase
					{
						OFFSET 0.200000 -0.500000 1.950000
						CHANNELS 3 Zrotation Yrotation Xrotation
						End Site
						{
							OFFSET 0.000000 0.000000 0.000000
						}
					}
				}
			}
		}
	}
	JOINT RHipJoint
	{
		OFFSET 0.000000 0.000000 0.000000
		CHANNELS 3 Zrotation Yrotation Xrotation
		JOINT RightUpLeg
		{
			OFFSET -1.800000 -1.400000 0.085000
			CHANNELS 3 Zrotation Yrotation Xrotation
			JOINT RightLeg
			{
				OFFSET -2.215000 -6.000000 0.000000
				CHANNELS 3 Zrotation Yrotation Xrotation
				JOINT RightFoot
				{
					OFFSET -2.500000 -6.900000 0.000000
					CHANNELS 3 Zrotation Yrotation Xrotation
					JOINT RightToeBase
					{
						OFFSET -0.200000 -0.500000 1.950000
						CHANNELS 3 Zrotation Yrotation Xrotation
						End Site
						{
							OFFSET 0.000000 0.000000 0.000000
						}
					}
				}
			}
		}
	}
	JOINT LowerBack
	{
		OFFSET 0.000000 0.000000 0.000000
		CHANNELS 3 Zrotation Yrotation Xrotation
		JOINT Spine
		{
			OFFSET -0.087000 1.940000 -0.288900
			CHANNELS 3 Zrotation Yrotation Xrotation
			JOINT Spine1
			{
				OFFSET 0.000000 1.950000 0.060000
				CHANNELS 3 Zrotation Yrotation Xrotation
				JOINT Neck
				{
					OFFSET 0.000000 0.000000 0.000000
					CHANNELS 3 Zrotation Yrotation Xrotation
					JOINT Neck1
					{
						OFFSET 0.000000 1.600000 0.340000
						CHANNELS 3 Zrotation Yrotation Xrotation
						JOINT Head
						{
							OFFSET 0.000000 1.667000 -0.240000
							CHANNELS 3 Zrotation Yrotation Xrotation
							End Site
							{
								OFFSET 0.000000 0.000000 0.000000
							}
						}
					}
				}
				JOINT LeftShoulder
				{
					OFFSET 0.000000 0.000000 0.000000
					CHANNELS 3 Zrotation Yrotation Xrotation
					JOINT LeftArm
					{
						OFFSET 2.700000 1.550000 -0.730000
						CHANNELS 3 Zrotation Yrotation Xrotation
						JOINT LeftForeArm
						{
							OFFSET 5.450000 0.000000 0.000000
							CHANNELS 3 Zrotation Yrotation Xrotation
							JOINT LeftHand
							{
								OFFSET 3.450000 0.000000 0.000000
								CHANNELS 3 Zrotation Yrotation Xrotation
								JOINT LeftHandIndex1
								{
									OFFSET 0.750000 0.000000 0.000000
									CHANNELS 3 Zrotation Yrotation Xrotation
									End Site
									{
										OFFSET 0.000000 0.000000 0.000000
									}
								}
							}
						}
					}
				}
				JOINT RightShoulder
				{
					OFFSET 0.000000 0.000000 0.000000
					CHANNELS 3 Zrotation Yrotation Xrotation
					JOINT RightArm
					{
						OFFSET -2.700000 1.550000 -0.730000
						CHANNELS 3 Zrotation Yrotation Xrotation
						JOINT RightForeArm
						{
							OFFSET -5.450000 0.000000 0.000000
							CHANNELS 3 Zrotation Yrotation Xrotation
							JOINT RightHand
							{
								OFFSET -3.450000 0.000000 0.000000
								CHANNELS 3 Zrotation Yrotation Xrotation
								JOINT RightHandIndex1
								{
									OFFSET -0.750000 0.000000 0.000000
									CHANNELS 3 Zrotation Yrotation Xrotation
									End Site
									{
										OFFSET 0.000000 0.000000 0.000000
									}
								}
							}
						}
					}
				}
			}
		}
	}
}
MOTION
Frames: 12
Frame Time: 0.016667
-0.649180 16.824520 -3.315570 -0.300504 13.328919 -15.611309 -15.425314 14.263233 2.908235 2.724760 1.186169 2.592015 -3.251836 7.011768 19.989374 0.152703 5.399739 2.772684 0.054370 0.068530 -0.130360 17.850966 -11.036785 2.594483 -7.351932 0.074340 -12.096118 8.908262 -5.958495 16.530607 -0.037938 -3.699879 3.010455 0.167170 0.299380 0.076740 -2.958078 -2.788979 -7.692754 1.962943 -2.686447 14.042758 -4.886729 -0.900140 18.997911 2.272734 0.930201 -13.365293 -3.724863 -2.638229 48.165735 -0.632070 -6.326850 0.405570 7.317219 -50.801867 -3.299500 2.581567 -43.671668 -1.684202 8.691277 -20.760341 -0.919566 -3.804810 3.433441 0.025630 0.164080 -0.102050 0.119170 -11.250068 51.204832 1.780356 -10.410310 35.070421 -1.158043 -3.407345 19.139079 0.744111 2.499233 -1.559047 -0.126880 0.227760 0.123870 0.075150 
-0.644020 16.807070 -3.308940 -0.434660 13.627181 -15.500254 -15.414641 14.260690 2.903333 2.813023 1.146490 2.445590 -3.433226 7.047298 19.918646 0.150720 5.402172 2.773490 0.052190 0.068060 -0.135510 17.864330 -11.020502 2.593471 -7.361690 0.104882 -12.400551 9.098025 -6.021638 16.688746 -0.035394 -3.707165 3.005597 0.168680 0.306850 0.076230 -2.999548 -2.810590 -7.685539 2.217346 -2.916568 13.869909 -4.957256 -1.164658 18.754838 2.159295 1.014500 -13.214854 -3.583907 -2.558526 47.771419 -0.395200 -6.270250 0.369170 7.584030 -50.821419 -3.566542 2.391929 -44.075901 -1.514919 8.327686 -20.721736 -0.830877 -3.801137 3.448536 0.021650 0.167850 -0.106700 0.120810 -11.366800 51.016239 1.882775 -10.730555 35.409148 -1.397736 -4.213389 19.499967 0.561391 2.497352 -1.561166 -0.128900 0.230420 0.125960 0.077460 
-0.641570 16.787800 -3.303870 -0.437064 13.941144 -15.626631 -15.422312 14.260300 2.909155 2.895341 1.125684 2.526902 -3.795935 7.173038 19.949803 0.156969 5.456482 2.755974 0.052770 0.068920 -0.136980 17.862480 -10.989793 2.584025 -7.441171 0.093925 -12.483555 9.361868 -6.111966 16.786528 -0.037768 -3.733187 2.994492 0.172220 0.312390 0.077590 -2.989881 -2.861061 -7.675008 2.186086 -3.065774 13.853260 -5.000343 -1.296827 18.754264 2.145476 1.126493 -12.991005 -3.302901 -2.467588 47.078292 -0.187600 -6.104690 0.167220 7.265166 -51.055921 -3.663797 2.769619 -44.596925 -2.123232 9.096590 -19.836151 -1.050295 -3.804690 3.453064 0.021120 0.171670 -0.110260 0.121400 -11.066301 51.093341 2.025192 -11.783547 35.716241 -2.509237 -6.019744 19.868605 0.082329 2.504138 -1.580458 -0.132080 0.232330 0.128400 0.076440 
-0.635950 16.770630 -3.297510 -0.104817 14.218869 -15.887310 -15.428737 14.279100 2.923593 2.850235 1.180352 2.826127 -3.864350 7.226106 19.992977 0.168166 5.505251 2.742750 0.047190 0.058280 -0.142050 17.856251 -10.989288 2.543172 -7.974146 -0.034889 -12.405794 9.186596 -6.110348 16.801412 -0.032170 -3.740465 2.989639 0.167240 0.317690 0.079230 -2.978189 -2.915788 -7.651232 1.990186 -3.153323 13.903499 -5.393491 -1.238866 18.857148 2.121824 1.001519 -12.803638 -3.663763 -2.458109 46.811282 -0.104760 -6.301320 0.144510 6.812382 -51.280111 -3.759389 3.062450 -45.380887 -2.780999 9.933279 -18.529432 -1.267995 -3.801255 3.449766 0.022580 0.171840 -0.114200 0.120430 -10.626342 51.404819 2.318869 -13.069431 35.792310 -3.696442 -7.464061 20.060112 -0.302132 2.514608 -1.595684 -0.134540 0.233980 0.135030 0.076970 
-0.630330 16.749380 -3.285620 0.188925 14.695889 -16.135267 -15.437592 14.315739 2.938852 2.761029 1.208520 3.024898 -3.919345 7.329714 20.385403 0.187516 5.582327 2.719809 0.033070 0.039470 -0.153520 17.845957 -10.975043 2.508063 -8.482651 -0.166923 -12.191213 9.067921 -6.100145 16.674574 -0.023300 -3.743885 2.989942 0.157000 0.325660 0.075420 -2.961652 -3.022876 -7.637795 1.855891 -3.239416 13.852442 -5.844504 -1.158337 18.930069 2.059346 0.781152 -12.762140 -4.368470 -2.302431 46.641148 0.049240 -6.500950 0.321210 6.754245 -51.389803 -4.032067 2.558100 -46.049414 -3.178853 11.499993 -17.450840 -1.668979 -3.799743 3.435186 0.022740 0.171780 -0.121760 0.117800 -10.561580 51.739340 2.760342 -14.298835 35.288316 -4.539856 -8.478240 20.062232 -0.537069 2.522470 -1.598562 -0.140140 0.237220 0.144570 0.078480 
-0.622360 16.738680 -3.276020 0.408180 14.813022 -16.393923 -15.443508 14.337215 2.947131 2.770194 1.204477 3.094753 -4.167299 7.539633 21.042584 0.204164 5.694235 2.678964 0.027030 0.028670 -0.155900 17.839031 -10.959496 2.487536 -8.928357 -0.250390 -11.946081 9.046477 -6.084830 16.447025 -0.023545 -3.742320 2.989171 0.151710 0.325040 0.070220 -2.944166 -3.104577 -7.629682 1.758057 -3.158099 13.883102 -5.895321 -1.009753 18.936811 1.874761 0.462365 -12.784399 -5.234822 -2.033466 46.831217 0.262160 -6.596570 0.217640 6.857468 -51.057100 -4.163389 2.528188 -46.527579 -3.208708 11.699597 -17.608811 -1.740256 -3.794226 3.427827 0.033790 0.164010 -0.120830 0.113920 -10.364742 51.725834 3.241746 -14.970197 34.828840 -4.906366 -8.692203 20.733292 -0.549760 2.514801 -1.589814 -0.146800 0.243710 0.151800 0.075410 
-0.612320 16.733710 -3.271850 0.564757 14.837384 -16.678932 -15.450103 14.336919 2.953017 2.764626 1.224565 3.268282 -4.391283 7.717299 21.506915 0.222941 5.784772 2.645967 0.027730 0.026450 -0.149040 17.835424 -10.955467 2.469847 -9.149198 -0.319475 -11.649626 8.843966 -6.005315 16.152910 -0.022756 -3.730080 2.992777 0.149880 0.316000 0.069640 -2.927751 -3.127013 -7.614931 1.761768 -3.033465 13.852353 -5.599845 -0.919659 19.109792 1.715759 0.084256 -12.764866 -6.108528 -2.062357 47.083155 -0.246330 -6.709110 0.275270 6.751793 -50.700539 -4.065703 3.109397 -46.946333 -3.385044 11.620766 -17.751081 -1.705745 -3.789797 3.426481 0.035770 0.160070 -0.118250 0.109410 -9.914984 51.770642 3.541252 -15.042953 34.731758 -5.084850 -8.908582 20.709916 -0.613517 2.519353 -1.585414 -0.145460 0.240550 0.151100 0.072070 
-0.600260 16.726260 -3.269260 0.565726 14.767168 -16.920846 -15.437969 14.296212 2.939397 2.822637 1.204681 3.345842 -4.631057 7.901221 22.039189 0.230162 5.884364 2.611377 0.025290 0.021240 -0.149830 17.854701 -10.974263 2.458744 -9.221183 -0.362706 -11.434808 8.707828 -5.971064 15.997820 -0.023349 -3.739615 2.989396 0.152210 0.319940 0.070150 -2.969629 -3.039396 -7.581855 2.103349 -2.901966 13.743853 -5.659486 -0.797494 19.275717 1.754703 0.065919 -12.628928 -6.152927 -2.297612 47.206803 -0.442420 -6.936740 0.259880 7.275425 -50.256592 -3.960231 4.096408 -47.484469 -3.595645 11.523720 -18.155387 -1.668443 -3.800032 3.421979 0.036470 0.163450 -0.122100 0.107230 -10.502806 51.335368 3.391509 -15.500443 34.614319 -4.890020 -8.044954 20.602655 -0.355307 2.504073 -1.581748 -0.150660 0.245710 0.157010 0.070100 
-0.590580 16.729170 -3.271850 0.559590 14.652508 -17.393356 -15.426735 14.264275 2.928128 2.986969 1.195739 3.590748 -4.853601 8.094244 22.545974 0.246726 5.990864 2.574740 0.028280 0.025570 -0.149140 17.871840 -10.996185 2.447028 -9.178981 -0.421161 -11.023299 8.494472 -5.929038 15.884468 -0.028865 -3.753856 2.986383 0.157930 0.321700 0.068830 -3.005881 -2.956845 -7.556646 2.448206 -2.728065 13.870685 -5.754004 -0.605804 19.689192 1.815284 0.219969 -12.499159 -5.889597 -2.564170 47.393228 -0.345790 -7.199420 0.159910 7.517619 -50.132178 -3.863952 4.992958 -47.965401 -4.240040 12.475712 -17.612233 -1.872940 -3.807184 3.404663 0.035490 0.163580 -0.123030 0.107360 -10.872320 51.087460 3.322187 -15.893667 34.161283 -4.921500 -7.602704 20.629283 -0.235126 2.496509 -1.586430 -0.151960 0.250940 0.157910 0.070950 
-0.581710 16.728760 -3.270830 0.645232 14.500936 -17.731608 -15.407219 14.194532 2.920164 2.968745 1.208064 3.838691 -5.095350 8.290445 23.071337 0.264227 6.088878 2.540655 0.033730 0.031100 -0.145610 17.897543 -11.054200 2.432927 -9.118683 -0.450766 -10.887573 8.121141 -5.877290 16.009856 -0.032920 -3.762403 2.983751 0.162460 0.320090 0.069620 -3.069154 -2.758019 -7.530246 2.759797 -2.452870 13.859717 -5.708253 -0.377064 19.990520 1.872323 0.364622 -12.433692 -5.396735 -2.911269 47.694630 -0.387660 -7.390180 0.109040 7.983511 -49.852725 -3.419246 6.905362 -47.957179 -4.814105 12.560548 -18.281207 -1.850651 -3.822462 3.393961 0.036390 0.163130 -0.121610 0.108460 -11.367357 50.669436 2.852089 -15.532718 34.455923 -4.715715 -7.631788 19.641098 -0.273194 2.505910 -1.583599 -0.151230 0.252510 0.156140 0.070600 
-0.581210 16.736900 -3.273630 0.717503 14.502638 -18.255465 -15.397409 14.176376 2.927160 2.888051 1.252120 4.237441 -4.912375 8.289647 23.315094 0.282710 6.120506 2.530134 0.030640 0.028250 -0.150650 17.903686 -11.115350 2.417452 -9.019981 -0.517770 -10.553583 7.587490 -5.816811 16.245378 -0.034765 -3.772115 2.982241 0.157380 0.318520 0.072380 -3.097588 -2.635502 -7.534879 2.904693 -2.288624 14.106417 -5.809461 -0.167629 20.446576 2.022616 0.543804 -12.490942 -4.935024 -3.212163 48.127249 -0.349990 -7.644860 0.299860 7.501680 -50.430176 -2.983253 7.220528 -47.622261 -5.504529 14.401038 -17.859036 -2.298936 -3.840578 3.368990 0.033900 0.161310 -0.119710 0.108830 -11.118170 51.156760 2.513684 -14.777769 34.472761 -5.033205 -8.947446 18.201428 -0.674740 2.545304 -1.586588 -0.145730 0.247650 0.157020 0.074620 
-0.582190 16.745590 -3.272170 0.656926 14.456437 -18.671475 -15.399451 14.145740 2.927803 3.052983 1.289494 4.694844 -4.897539 8.316116 23.287684 0.304285 6.152024 2.527201 0.014750 0.004650 -0.154170 17.898508 -11.175761 2.418298 -8.751939 -0.550324 -10.280710 7.138861 -5.756639 16.373889 -0.030898 -3.780511 2.987147 0.138830 0.322610 0.078430 -3.090615 -2.474914 -7.550196 2.917310 -2.069503 14.189812 -5.401022 -0.029617 20.939549 2.257659 0.869901 -12.715904 -3.832917 -3.552059 48.379947 -0.708040 -7.473060 1.050750 6.355642 -51.041777 -1.762987 8.635993 -46.630794 -6.518114 16.451114 -18.975743 -2.826033 -3.892618 3.339254 0.028730 0.170230 -0.124520 0.105670 -10.249341 51.596274 2.170382 -13.714528 34.926922 -5.888807 -11.886597 16.800977 -1.465794 2.600247 -1.597144 -0.144710 0.235560 0.159560 0.073480 
